<?xml version="1.0" encoding="UTF-8" standalone="no"?>
<!-- Created with Inkscape (http://www.inkscape.org/) -->

<svg
   xmlns:dc="http://purl.org/dc/elements/1.1/"
   xmlns:cc="http://creativecommons.org/ns#"
   xmlns:rdf="http://www.w3.org/1999/02/22-rdf-syntax-ns#"
   xmlns:svg="http://www.w3.org/2000/svg"
   xmlns="http://www.w3.org/2000/svg"
   xmlns:sodipodi="http://sodipodi.sourceforge.net/DTD/sodipodi-0.dtd"
   xmlns:inkscape="http://www.inkscape.org/namespaces/inkscape"
   version="1.1"
   id="svg815"
   width="80"
   height="80.639999"
   viewBox="0 0 80 80.639999"
   sodipodi:docname="earth.svg"
   inkscape:version="0.92.4 (5da689c313, 2019-01-14)">
  <metadata
     id="metadata821">
    <rdf:RDF>
      <cc:Work
         rdf:about="">
        <dc:format>image/svg+xml</dc:format>
        <dc:type
           rdf:resource="http://purl.org/dc/dcmitype/StillImage" />
        <dc:title></dc:title>
      </cc:Work>
    </rdf:RDF>
  </metadata>
  <defs
     id="defs819" />
  <sodipodi:namedview
     pagecolor="#ffffff"
     bordercolor="#666666"
     borderopacity="1"
     objecttolerance="10"
     gridtolerance="10"
     guidetolerance="10"
     inkscape:pageopacity="0"
     inkscape:pageshadow="2"
     inkscape:window-width="1538"
     inkscape:window-height="878"
     id="namedview817"
     showgrid="false"
     inkscape:zoom="8.7921628"
     inkscape:cx="38.578279"
     inkscape:cy="40.32"
     inkscape:window-x="54"
     inkscape:window-y="-8"
     inkscape:window-maximized="1"
     inkscape:current-layer="svg815" />
  <path
     style="fill:#000000;stroke-width:0.31999999"
     d="M 34.94519,80.286985 C 20.314291,78.311074 7.8358534,68.434946 2.8331484,54.871734 0.9828272,49.855187 0.29090909,45.894662 0.29090909,40.32 0.29090909,26.403688 6.5790102,14.472952 18.038348,6.6468742 29.535238,-1.2048485 46.210701,-2.0592342 58.64768,4.5662102 66.232006,8.6065417 73.260266,16.133071 76.52921,23.715461 83.11448,38.990124 80.202861,56.233657 69.048736,68.017218 63.110522,74.290533 56.257939,78.110591 47.84,79.840297 44.705882,80.48429 38.10047,80.713109 34.94519,80.286985 Z m 10.603994,-2.045431 c 7.425648,-1.119254 14.303517,-4.390755 19.808595,-9.422086 1.670359,-1.526614 1.759626,-1.688864 1.923504,-3.496163 0.112634,-1.242122 0.470589,-2.404999 1.038714,-3.374432 0.819526,-1.398416 0.838825,-1.521962 0.35343,-2.262768 -1.051277,-1.604451 -0.703264,-2.673351 1.60305,-4.923651 l 2.116477,-2.065079 0.315052,-3.548688 c 0.173277,-1.951779 0.315517,-4.002534 0.316087,-4.557232 0.0013,-1.122598 -2.475738,-6.154614 -3.15841,-6.416579 -0.237686,-0.09121 -1.330701,0.41136 -2.428918,1.116823 -1.098221,0.705459 -2.327815,1.381366 -2.732432,1.502012 -1.193389,0.355844 -2.099587,-0.529561 -3.067827,-2.997446 -0.770954,-1.965033 -1.137389,-2.45967 -2.704154,-3.65024 -1.574912,-1.196761 -1.860733,-1.584765 -2.181632,-2.961607 -0.203107,-0.87143 -0.383107,-2.50732 -0.4,-3.635311 -0.03066,-2.045576 -0.02685,-2.054437 1.459363,-3.418935 1.360771,-1.249325 1.513815,-1.541587 1.763571,-3.36786 0.279514,-2.043845 0.926804,-3.15987 1.835943,-3.165438 0.28072,-0.0017 1.280701,-0.36172 2.222179,-0.8 C 64.573251,16.358593 65.48137,16 65.649818,16 c 0.168448,0 1.013132,0.737244 1.877075,1.638321 1.336313,1.393747 1.763555,1.647669 2.861958,1.700938 0.710131,0.03444 1.291149,-0.0678 1.291149,-0.227193 0,-0.657336 -1.815539,-2.813024 -2.528307,-3.001997 -0.42257,-0.112035 -1.51817,-0.88278 -2.434672,-1.712767 -2.841565,-2.573334 -5.157786,-2.417235 -5.956122,0.401404 -0.786064,2.775319 -1.585709,2.757035 -4.517958,-0.103302 -1.770874,-1.727446 -1.909991,-1.963525 -1.724925,-2.927196 0.110714,-0.576514 0.58032,-1.38153 1.043568,-1.7889227 C 56.306256,9.3243992 56.360768,9.144012 56.032032,8.4225145 55.563274,7.3937004 55.81111,6.5863426 56.72704,6.1584361 57.390598,5.8484335 57.317926,5.770335 55.67825,5.0313183 53.464288,4.0334655 49.290074,2.7071424 47.125267,2.3136768 L 45.472243,2.0132298 45.376122,3.326615 45.28,4.6399999 43.565318,4.8121526 C 41.932086,4.9761276 40.96,5.6118476 40.96,6.5159644 c 0,0.5397027 -1.033069,1.4840355 -1.623485,1.4840355 -0.803536,0 -3.176515,-2.3794592 -3.176515,-3.1851897 0,-0.3714515 0.208653,-1.1747411 0.46367,-1.7850882 L 37.087344,1.92 35.74367,1.9243696 C 33.699456,1.9310173 33.094922,2.1971131 32.606992,3.305033 32.270723,4.0685859 31.882569,4.3774355 31.04,4.5518691 30.424,4.6793971 28.853416,5.0045081 27.549813,5.2743382 24.719829,5.860111 24.32,6.142959 24.32,7.5591823 c 0,1.4531549 0.618419,1.4126358 3.04,-0.1991824 1.056,-0.7028797 2.268684,-1.2784214 2.694853,-1.2789814 0.835154,-0.00109 3.033397,2.0693081 3.84516,3.6215491 0.423469,0.8097504 0.403705,0.9359444 -0.248765,1.5885304 -0.595971,0.596073 -1.137085,0.726729 -3.399808,0.820909 -2.566177,0.106811 -2.753834,0.166197 -4.044754,1.28 -0.744549,0.642396 -2.15677,1.599993 -3.138268,2.127993 -1.195324,0.643029 -2.154981,1.483633 -2.90648,2.545909 -2.493106,3.524116 -4.214995,4.644459 -5.437637,3.537983 -0.579804,-0.524715 -0.662095,-0.516105 -1.667105,0.174428 -1.749092,1.201784 -2.528227,2.000739 -3.1683378,3.248932 C 9.0508429,26.661351 9.1119264,26.88 10.406459,26.88 h 1.126459 l -0.214338,3.049201 c -0.173846,2.473163 -0.104926,3.410565 0.364826,4.96205 0.31854,1.052064 0.496419,1.99559 0.395286,2.096723 C 11.760042,37.306624 10.457138,36.461827 8.8,34.862083 7.3668432,33.478563 3.7693786,31.04 3.1615124,31.04 c -1.023135,0 -1.4928351,12.172239 -0.6359271,16.479999 2.3599945,11.86392 9.8736187,21.820048 20.5259717,27.198493 3.653911,1.844883 7.595241,3.014237 12.788443,3.794198 1.982867,0.297805 6.8332,0.162359 9.709184,-0.271136 z M 27.36,74.989167 c -1.776991,-0.935152 -2.774292,-2.172698 -4.477016,-5.555494 -2.118051,-4.207927 -2.721712,-6.220003 -2.727701,-9.091754 -0.0068,-3.27983 -0.435941,-3.907977 -3.407831,-4.988633 -1.040462,-0.378339 -1.481067,-1.123843 -1.887285,-3.193287 -0.120916,-0.616 -0.766822,-2.344 -1.435346,-3.84 -1.847962,-4.135308 -1.881924,-4.687225 -0.446387,-7.254204 l 1.205604,-2.155824 -0.552977,-1.556944 C 12.98238,35.526624 13.281345,34.88 14.774462,34.88 c 0.58746,0 1.212228,-0.297949 1.677512,-0.8 0.829404,-0.894941 1.955882,-1.015741 2.889188,-0.309824 0.41668,0.315161 1.403479,0.469824 2.997647,0.469824 2.339745,0 2.394455,0.01898 3.538838,1.226432 0.639294,0.674537 1.464706,1.598467 1.834249,2.053177 0.482871,0.594157 1.113054,0.890813 2.24,1.054471 2.164222,0.314294 2.64243,0.627798 3.307656,2.168428 0.917706,2.125367 1.547133,2.500103 6.281971,3.740019 2.846253,0.745351 5.688051,2.206365 6.218138,3.196842 0.294016,0.54937 0.119411,0.85503 -1.241914,2.174051 -1.189923,1.152951 -1.63615,1.84976 -1.793533,2.800695 -0.400889,2.422249 -1.474665,5.616335 -2.097443,6.239113 -0.450589,0.450589 -1.06439,0.626771 -2.183616,0.626771 -2.027507,0 -2.951558,0.73696 -3.900998,3.111175 -1.04376,2.610067 -1.485578,3.205248 -3.067553,4.132348 -1.545889,0.905949 -1.579454,1.024538 -1.415283,5.000244 0.06525,1.580089 -0.05138,2.37855 -0.432363,2.959999 -0.602957,0.920231 -0.946273,0.960423 -2.266958,0.265402 z m 0.864113,-4.068601 C 28.100851,70.370252 28,68.846422 28,67.534274 v -2.385728 l 1.060906,-0.218134 c 1.870637,-0.384621 3.177942,-2.023427 4.105356,-5.146371 0.595556,-2.005453 1.804122,-2.821139 4.18248,-2.822845 2.050151,-0.0016 2.448967,-0.550976 2.367613,-3.262211 -0.05418,-1.805514 -0.01965,-1.885754 1.394045,-3.24032 0.79728,-0.763926 1.4496,-1.618477 1.4496,-1.898995 0,-0.605699 -1.24361,-1.048045 -4.276083,-1.520983 -3.460186,-0.539644 -4.442749,-1.190384 -7.172725,-4.750403 -0.422456,-0.550902 -1.000495,-0.796851 -2.16382,-0.920678 -1.929665,-0.205402 -2.602215,-0.745731 -3.060009,-2.458422 -0.589339,-2.204829 -1.206621,-2.543719 -2.963941,-1.627213 -1.438383,0.750169 -2.358922,0.609651 -2.903369,-0.443194 -0.502949,-0.972595 -1.531441,-1.584614 -1.718728,-1.022752 -0.06099,0.182957 -0.675733,0.484749 -1.366105,0.670647 -1.370395,0.369011 -1.522656,0.749107 -0.744894,1.859516 0.643105,0.91816 0.42019,1.84024 -0.823095,3.404714 C 14.835254,42.420307 14.4,43.234025 14.4,43.559164 c 0,0.96857 1.563203,6.090711 2.328971,7.631328 0.565659,1.138029 0.940013,1.487402 1.831029,1.708845 2.161128,0.537107 2.653004,1.485098 3.186149,6.140662 0.201552,1.76 0.58717,3.992 0.856929,4.96 0.579824,2.080637 3.141806,7.077591 4.231687,8.253594 0.725669,0.783008 0.788299,0.796012 1.189727,0.247027 0.274506,-0.375408 0.344808,-0.931862 0.199621,-1.580054 z m 42.730025,-7.640567 c 1.09176,-1.180813 4.148825,-7.056297 5.155628,-9.908784 C 77.414842,49.673654 78.12903,45.077337 78.187418,40 78.233158,36.022662 78.156762,35.400793 77.22407,32.16 76.666906,30.224 76.109139,27.993902 75.984592,27.204227 75.639734,25.017714 74.945008,23.302873 74.007699,22.324535 73.235405,21.518431 72.955424,21.44 70.850147,21.44 h -2.310112 l -1.149485,-1.6 c -0.977795,-1.361018 -1.306217,-1.6 -2.198816,-1.6 -1.055065,0 -2.288963,0.630018 -3.031734,1.547979 -0.22,0.271889 -0.4,1.256921 -0.4,2.188961 0,1.611281 -0.08066,1.7757 -1.640166,3.343438 l -1.640167,1.64882 0.179603,1.740187 c 0.2204,2.135462 0.857661,3.168805 2.125988,3.447376 1.324739,0.290963 2.254742,1.563994 2.254742,3.086394 0,1.449651 0.937507,2.622953 1.832742,2.293699 0.311991,-0.114749 1.068068,-0.615482 1.680167,-1.112742 2.431305,-1.975156 4.406406,-0.847063 6.610477,3.775619 l 1.413062,2.96366 -0.206266,4.898304 c -0.242627,5.761869 -0.652316,7.065293 -2.683145,8.536419 -0.730691,0.529309 -1.499194,1.024756 -1.707783,1.100992 -0.288217,0.105335 -0.282745,0.282909 0.02278,0.739751 0.766845,1.146617 0.822055,1.505728 0.432036,2.810128 -0.679108,2.271235 -0.757092,2.751014 -0.447156,2.751014 0.165837,0 0.601088,-0.324 0.967224,-0.72 z M 9.744657,31.6 C 9.352583,29.797317 8.9714397,29.063075 8.3423485,28.898563 7.5426515,28.689438 6.9103904,27.119969 7.1850269,26.02573 c 0.2565213,-1.022062 0.9226464,-2.0133 3.4572091,-5.144551 2.224897,-2.748685 3.072137,-3.11121 4.368485,-1.869231 0.859662,0.823609 0.910198,0.832868 1.527838,0.279918 0.351322,-0.314527 1.273869,-1.361191 2.050104,-2.325922 1.800708,-2.237979 2.772456,-3.101267 3.971337,-3.52808 0.528,-0.187974 1.354631,-0.912391 1.836959,-1.609817 L 25.273918,10.56 h 2.387984 C 30.319707,10.56 31.68,10.111342 31.68,9.2347317 31.68,8.338845 30.190452,8.1202021 28.489924,8.766477 c -3.363228,1.278173 -5.17627,1.853843 -5.335885,1.694229 -0.09358,-0.09358 -0.24952,-1.0455208 -0.346536,-2.1154251 -0.118247,-1.3040474 -0.315012,-1.945281 -0.596918,-1.945281 -0.546781,0 -4.0858,3.069127 -8.855829,7.6800001 -5.3425915,5.16433 -7.6481582,8.31928 -9.0854648,12.432599 -0.4021021,1.150745 -0.6991888,2.10017 -0.660193,2.109832 0.8059591,0.199705 3.4238576,1.911604 4.3087284,2.817569 1.49416,1.529779 2.1369954,1.58608 1.8268304,0.16 z M 59.84,12.899734 c 0.264,-0.708071 0.677632,-1.524178 0.919181,-1.813569 0.618678,-0.741208 2.469005,-0.659829 3.80759,0.167463 1.797757,1.111074 1.08472,-0.03768 -0.827792,-1.3336281 C 59.84249,7.2796658 58.511197,6.6623113 58.110845,7.3100917 58.001408,7.4871641 58.082461,8.0064348 58.290947,8.4640271 58.632544,9.2137532 58.56967,9.3995551 57.655014,10.343241 57.096755,10.919216 56.64,11.530803 56.64,11.702324 c 0,0.545952 1.976138,2.732287 2.35552,2.606072 0.200464,-0.06669 0.58048,-0.70059 0.84448,-1.408662 z M 39.941776,4.3199999 C 40.252346,3.6383676 40.520355,3.52 41.753139,3.52 42.99744,3.52 43.2,3.4283526 43.2,2.8653792 c 0,-0.6040177 -0.166464,-0.6473065 -2.153459,-0.56 -2.012906,0.088445 -2.173146,0.1508101 -2.45505,0.9555017 -0.215289,0.6145354 -0.183056,1.0037069 0.11264,1.36 0.570871,0.687855 0.814087,0.6287274 1.237645,-0.300881 z"
     id="path825"
     inkscape:connector-curvature="0" />
  <path
     style="fill:#5bf773;fill-opacity:1;stroke:#000000;stroke-width:0.11373766;stroke-opacity:1"
     d="m 26.941791,72.257558 c -0.620114,-0.689715 -1.570234,-2.262743 -2.603634,-4.310596 -1.510234,-2.992781 -1.970446,-4.567075 -2.480382,-8.484914 -0.46815,-3.59679 -0.734404,-4.693674 -1.33445,-5.497526 -0.370928,-0.496913 -0.823721,-0.767005 -1.777073,-1.060026 -0.441423,-0.135676 -0.949336,-0.387867 -1.168222,-0.580051 -0.538057,-0.47242 -1.079625,-1.662906 -1.916834,-4.213624 -0.818259,-2.492979 -1.265418,-4.334059 -1.157289,-4.764881 0.04058,-0.161682 0.479047,-0.900984 0.974372,-1.642893 1.265949,-1.896168 1.349495,-2.329521 0.679349,-3.523786 -0.595786,-1.06175 -0.490499,-1.231268 1.086685,-1.749622 0.448427,-0.14738 0.904269,-0.384433 1.057796,-0.550091 l 0.269787,-0.291105 0.40133,0.21613 c 0.220731,0.118872 0.538043,0.417213 0.705138,0.66298 0.167095,0.245767 0.466217,0.632193 0.664716,0.858725 0.337293,0.384927 0.404271,0.411877 1.023639,0.411877 0.51462,0 0.883198,-0.09532 1.649227,-0.426516 1.793894,-0.775599 2.113963,-0.587535 2.846525,1.672547 0.557292,1.719343 1.009634,2.095875 2.879291,2.396733 1.690497,0.272027 1.874034,0.376495 2.868587,1.632763 2.282072,2.882597 3.255955,3.468022 6.833525,4.107801 2.649714,0.473851 3.461223,0.71088 3.885131,1.134788 0.224101,0.224101 0.225957,0.249413 0.04411,0.601665 -0.104408,0.202248 -0.660491,0.853951 -1.235739,1.44823 -1.432433,1.47982 -1.445438,1.510816 -1.476986,3.520095 -0.04229,2.693427 -0.230396,2.931054 -2.44318,3.086349 -2.608928,0.183098 -3.352213,0.733349 -4.167105,3.084889 -1.099199,3.17197 -2.215875,4.479673 -4.202753,4.921711 l -0.871796,0.193957 0.07853,2.861323 c 0.04319,1.573728 0.08723,3.177159 0.09786,3.56318 0.01657,0.60143 -0.02012,0.743832 -0.256399,0.995205 -0.151655,0.161341 -0.313254,0.293347 -0.359107,0.293347 -0.04585,0 -0.313447,-0.255899 -0.594649,-0.568664 z"
     id="path827"
     inkscape:connector-curvature="0" />
  <path
     style="fill:#5bf773;fill-opacity:1;stroke:#000000;stroke-width:0.11373766;stroke-opacity:1"
     d="M 9.0309407,32.307182 C 8.8382205,32.166431 8.2804457,31.698756 7.791441,31.267902 6.8486108,30.43719 5.2303682,29.316895 4.2863754,28.841375 3.9735969,28.683818 3.704325,28.543438 3.6879935,28.52942 3.5987477,28.45281 4.7886172,25.270904 5.3102282,24.191298 6.0360271,22.689072 7.375793,20.655394 8.6740857,19.085179 10.990205,16.283958 19.910539,7.8101108 21.677462,6.7326575 c 0.748889,-0.4566661 0.84699,-0.2723227 1.149875,2.1607476 0.0965,0.775207 0.20259,1.4533679 0.235752,1.5070239 0.159238,0.257653 0.950612,0.03634 5.108195,-1.4285403 1.587319,-0.5592754 2.275709,-0.6426401 2.956784,-0.3580693 0.746664,0.3119763 0.631734,1.061039 -0.220649,1.4380886 -0.709328,0.313769 -1.818583,0.441152 -3.873512,0.44482 l -1.819803,0.0032 -0.453914,0.704407 c -0.718157,1.114474 -1.491716,1.831275 -2.484911,2.302587 -1.068442,0.50702 -1.95725,1.311965 -3.522035,3.189718 -1.448512,1.738224 -2.579158,2.90031 -2.821842,2.90031 -0.104384,0 -0.446806,-0.231079 -0.760938,-0.51351 -1.173482,-1.055062 -1.821476,-1.052016 -2.972872,0.01397 -0.701652,0.649605 -2.3864193,2.669822 -3.6378098,4.362122 -1.3625972,1.842689 -1.7086436,2.917597 -1.3179463,4.093877 0.2123337,0.639276 0.7715201,1.370025 1.048376,1.370025 0.4863615,0 1.1161344,1.219701 1.3941932,2.700179 0.1798422,0.957539 -0.00851,1.154551 -0.6534644,0.683517 z"
     id="path829"
     inkscape:connector-curvature="0" />
  <path
     style="fill:#5bf773;fill-opacity:1;stroke:#000000;stroke-width:0.11373766;stroke-opacity:1"
     d="m 69.856135,63.746597 c 0,-0.114448 0.183315,-0.869382 0.407365,-1.67763 0.541959,-1.955075 0.542717,-2.308009 0.0071,-3.282536 -0.233525,-0.424845 -0.409504,-0.811825 -0.391068,-0.859954 0.01844,-0.04813 0.580236,-0.45224 1.248443,-0.898021 2.799677,-1.867752 3.024383,-2.607479 3.396416,-11.18098 l 0.116977,-2.695758 -1.066912,-2.20456 c -1.203943,-2.487699 -1.883604,-3.60305 -2.682283,-4.40173 -1.42544,-1.42544 -2.632539,-1.454597 -4.449403,-0.107474 -1.652493,1.225249 -2.045612,1.328064 -2.653055,0.693876 -0.412714,-0.430886 -0.606828,-0.972135 -0.700341,-1.952772 -0.156391,-1.640024 -0.851809,-2.594752 -2.227179,-3.057663 -0.40182,-0.135242 -0.837493,-0.3343 -0.968162,-0.442352 C 59.215278,31.11777 58.793,29.881287 58.64828,28.031325 l -0.08211,-1.049672 1.383237,-1.410782 c 0.88266,-0.900237 1.459394,-1.588172 1.593678,-1.900959 0.141037,-0.328516 0.232327,-0.902798 0.276802,-1.741292 0.0365,-0.688112 0.126276,-1.430251 0.199504,-1.649196 0.19487,-0.582644 0.738179,-1.098154 1.624941,-1.5418 0.944744,-0.472655 1.92897,-0.540405 2.529641,-0.174131 0.19551,0.119217 0.808329,0.835573 1.36182,1.591902 l 1.006346,1.375144 2.050311,0.0025 c 2.370568,0.0029 2.648601,0.07873 3.43714,0.937559 0.887412,0.966516 1.405723,2.279784 1.96322,4.974302 0.187671,0.907057 0.668397,2.851972 1.06828,4.322031 1.033483,3.79931 1.042421,3.864767 1.032754,7.563554 -0.01318,5.041866 -0.488788,8.827812 -1.586007,12.62488 -0.60513,2.094126 -2.261195,5.726978 -4.068653,8.925252 -1.170812,2.071739 -2.582997,3.638639 -2.582997,2.865983 z"
     id="path831"
     inkscape:connector-curvature="0" />
  <path
     style="fill:#5bf773;fill-opacity:1;stroke:#000000;stroke-width:0.11373766;stroke-opacity:1"
     d="m 58.138329,13.613815 c -0.367602,-0.350633 -0.857668,-0.912371 -1.089036,-1.248307 l -0.42067,-0.610794 0.301375,-0.429323 c 0.165757,-0.236128 0.58285,-0.749769 0.926874,-1.141426 0.688018,-0.7832785 0.746464,-1.0205886 0.454891,-1.8469947 -0.540505,-1.5319533 0.263302,-1.5663293 2.676314,-0.1144565 2.439749,1.4679594 4.716457,3.1665942 4.514682,3.3683682 -0.03018,0.03018 -0.457726,-0.148218 -0.9501,-0.396444 -1.470352,-0.741262 -2.702421,-0.865039 -3.540057,-0.355642 -0.34464,0.209589 -0.861977,1.082404 -1.28112,2.161418 -0.21846,0.562389 -0.661072,1.251115 -0.804032,1.251115 -0.06641,0 -0.42152,-0.286882 -0.789121,-0.637514 z"
     id="path833"
     inkscape:connector-curvature="0" />
  <path
     style="fill:#5bf773;fill-opacity:1;stroke:#000000;stroke-width:0.11338583;stroke-opacity:1;stroke-miterlimit:4;stroke-dasharray:none"
     d="M 38.900576,4.7257997 C 38.480017,4.2705599 38.437741,4.0516077 38.637632,3.364006 c 0.234327,-0.8060573 0.472009,-0.9034027 2.45719,-1.0063691 1.754062,-0.090979 2.032964,-0.01965 2.032964,0.5199258 0,0.4490404 -0.261603,0.567312 -1.272072,0.5751079 -1.232282,0.00951 -1.543278,0.1546805 -1.996393,0.9319161 -0.209696,0.3596954 -0.446184,0.6539915 -0.52553,0.6539915 -0.07935,0 -0.274292,-0.1407503 -0.433215,-0.3127785 z"
     id="path835"
     inkscape:connector-curvature="0" />
  <path
     style="fill:#7876ee;fill-opacity:1;stroke:#ff0000;stroke-width:0.01289624;stroke-miterlimit:4;stroke-dasharray:none;stroke-opacity:1"
     d="M 36.621992,78.545023 C 33.763873,78.310047 28.415795,76.974901 25.515723,75.772346 22.695281,74.60281 18.805422,72.31588 16.547295,70.499617 10.618853,65.731236 6.401748,59.72636 3.9633505,52.580919 2.5316753,48.385561 2.1594812,45.923522 2.1594812,40.648442 c 0,-4.815334 0.4214008,-9.205162 0.9128017,-9.508864 0.4274463,-0.264176 3.518218,1.875674 6.61567,4.580262 1.4548471,1.270323 2.4804421,1.709109 2.4804421,1.06122 0,-0.123715 -0.17539,-0.905846 -0.389756,-1.738068 -0.214366,-0.832222 -0.424411,-1.871404 -0.466766,-2.309294 -0.0683,-0.706123 0.06486,-3.621082 0.240297,-5.260367 l 0.06391,-0.597122 -0.719044,-0.01346 C 9.7645153,26.841557 9.5015017,26.755991 9.4598521,26.395197 9.4060237,25.928901 10.288223,24.3331 11.05005,23.518705 c 0.691298,-0.738999 2.453126,-2.061476 2.893624,-2.172035 0.184876,-0.0464 0.415934,0.04561 0.791197,0.315074 0.642474,0.461335 1.216163,0.489414 1.98303,0.09706 0.735404,-0.376259 1.928703,-1.571498 3.009942,-3.014836 1.217911,-1.62578 2.108278,-2.436296 3.745658,-3.409737 0.73434,-0.436574 1.856317,-1.199958 2.493281,-1.696409 1.584007,-1.23458 1.782353,-1.309471 3.802807,-1.435857 2.259698,-0.141352 2.7362,-0.205677 3.269666,-0.441382 0.534847,-0.236316 1.194246,-0.942548 1.194246,-1.279067 0,-0.480134 -0.759242,-1.6464562 -1.739967,-2.6728768 -1.160996,-1.2150923 -1.915941,-1.74642 -2.481427,-1.74642 -0.450696,0 -1.614125,0.566945 -3.104873,1.5130196 -1.236042,0.7844299 -1.947664,1.0780662 -2.210651,0.9121788 -0.493427,-0.3112459 -0.439025,-1.6795048 0.08772,-2.2062509 0.398654,-0.3986536 0.94851,-0.5619242 4.194136,-1.2453766 1.786876,-0.3762739 2.755902,-0.6335832 2.975824,-0.7901821 0.179366,-0.1277189 0.500812,-0.5517546 0.714326,-0.9423017 0.578374,-1.057924 0.95617,-1.2329294 2.825264,-1.3087364 0.808142,-0.032777 1.46935,-0.030516 1.46935,0.00502 0,0.03554 -0.160426,0.4651462 -0.356502,0.9546796 -0.201308,0.5025932 -0.380633,1.1901875 -0.411934,1.5794892 -0.05487,0.6824044 -0.04996,0.6963098 0.481346,1.3648519 1.008331,1.2687761 2.063833,2.097144 2.672173,2.097144 0.6799,0 1.709472,-1.0188631 1.709472,-1.6916901 0,-0.3326323 0.507333,-0.8750272 1.004549,-1.0739736 0.487624,-0.1951084 1.397639,-0.3652102 2.549753,-0.4766046 l 0.767729,-0.074229 v -0.428735 c 0,-0.2358056 0.03318,-0.8212202 0.07373,-1.3009215 l 0.07373,-0.8721842 0.409659,0.069446 c 1.013691,0.1718427 3.142274,0.6741644 4.390476,1.0361034 2.34493,0.6799548 5.721335,1.9720753 6.520399,2.4952988 l 0.264829,0.1734085 -0.521663,0.3308292 c -0.307169,0.1948006 -0.601405,0.4980478 -0.715599,0.7375146 -0.183204,0.3841831 -0.182868,0.4456483 0.0061,1.1108603 0.110004,0.387296 0.228292,0.8143292 0.262862,0.9489625 0.04776,0.1860053 -0.0928,0.4140964 -0.58532,0.9498396 -0.752058,0.8180515 -1.096929,1.5167315 -1.120373,2.2697825 -0.01467,0.471118 0.04365,0.613085 0.489119,1.190729 0.597911,0.775317 2.633508,2.662716 3.387514,3.140892 0.551135,0.349519 1.119081,0.431288 1.516885,0.21839 0.255866,-0.136936 0.670525,-0.922025 0.959004,-1.815719 0.300893,-0.932152 0.56719,-1.403659 1.014641,-1.796526 0.46058,-0.404395 0.986574,-0.535589 1.773607,-0.442377 0.906543,0.107367 1.612306,0.532022 3.739803,2.250227 0.511183,0.412841 1.29364,0.950251 1.738795,1.194246 0.851232,0.466569 1.721989,1.362021 2.324932,2.390865 0.379284,0.647199 0.294814,0.722406 -0.810204,0.721357 -1.146125,-0.0011 -1.52102,-0.217401 -3.247273,-1.873661 -1.754788,-1.68364 -1.434197,-1.622335 -3.605727,-0.689499 -0.797417,0.342551 -1.740505,0.698327 -2.095751,0.790615 -0.893506,0.232118 -1.068956,0.345485 -1.388861,0.897409 -0.340327,0.587162 -0.583242,1.436904 -0.755355,2.642309 -0.196849,1.378658 -0.424073,1.778178 -1.811244,3.184655 -1.448937,1.469101 -1.445575,1.459366 -1.333819,3.862352 0.09209,1.980037 0.343754,3.366785 0.769858,4.242099 0.304316,0.625137 0.512075,0.845707 1.711515,1.817062 1.511221,1.223848 1.998019,1.84011 2.600965,3.292699 1.116714,2.69034 1.741187,3.448354 2.840846,3.448354 0.517646,0 1.224743,-0.324989 2.845846,-1.307983 1.355996,-0.82224 2.325868,-1.307983 2.611618,-1.307983 0.142985,0 0.377128,0.203271 0.62061,0.538786 0.528197,0.727845 1.651435,2.91448 2.177092,4.238196 0.400381,1.00825 0.427648,1.152765 0.407728,2.161015 -0.01174,0.59428 -0.144719,2.506791 -0.295507,4.250025 l -0.274158,3.169516 -1.752101,1.778072 c -0.963656,0.97794 -1.894207,2.022783 -2.06789,2.321874 -0.62568,1.077447 -0.609493,1.857104 0.06136,2.955339 0.18208,0.29808 0.331054,0.645198 0.331054,0.771377 0,0.126177 -0.278418,0.777978 -0.618706,1.448445 -0.679399,1.338613 -0.898751,2.065355 -1.088363,3.605879 -0.164921,1.339924 -0.413764,1.865897 -1.275955,2.696948 -4.276261,4.121811 -10.128825,7.452069 -15.853443,9.021011 -1.547707,0.42418 -3.751969,0.876528 -5.219047,1.071027 -2.103029,0.278812 -6.409396,0.418531 -8.24598,0.267539 z m -7.384363,-3.298119 c 0.201988,-0.169961 0.47462,-0.54103 0.605848,-0.824598 0.222196,-0.48013 0.238599,-0.711063 0.238599,-3.359017 0,-3.376426 -0.01625,-3.321952 1.228851,-4.119652 1.816956,-1.164069 2.098119,-1.516416 3.147522,-3.944381 1.178501,-2.726655 1.681786,-3.190952 3.666293,-3.382277 1.679244,-0.161895 1.812545,-0.188084 2.218883,-0.435943 0.690642,-0.42128 1.662401,-2.876062 2.271316,-5.737618 0.160845,-0.755875 0.388551,-1.5651 0.506015,-1.798277 0.117463,-0.233176 0.755207,-0.997086 1.417208,-1.697576 1.632828,-1.727764 1.702527,-1.96794 0.809878,-2.790756 -1.016804,-0.937257 -3.010764,-1.891532 -5.427658,-2.597584 -4.254128,-1.242766 -5.050198,-1.563796 -5.692866,-2.295755 -0.186551,-0.212471 -0.574019,-0.856948 -0.861039,-1.432174 -0.287021,-0.575225 -0.631608,-1.166003 -0.765753,-1.312842 -0.402165,-0.440224 -1.0519,-0.702915 -2.330331,-0.942163 -1.567553,-0.293356 -2.016962,-0.51857 -2.757049,-1.381653 -1.179253,-1.375237 -2.440607,-2.615032 -2.833809,-2.785374 -0.27941,-0.121045 -1.014695,-0.195365 -2.466503,-0.249302 -2.033351,-0.07554 -2.080597,-0.08303 -2.786573,-0.441335 -1.274167,-0.646687 -1.997725,-0.591025 -2.879205,0.221495 -0.576217,0.531139 -1.337011,0.891864 -1.888095,0.895225 -0.553757,0.0034 -1.106698,0.209022 -1.242053,0.461934 -0.211754,0.395668 -0.110969,1.226321 0.294085,2.42378 l 0.405421,1.198547 -0.797346,1.426232 c -1.130168,2.021555 -1.282676,2.3966 -1.34829,3.315702 -0.07384,1.034288 0.07864,1.564246 1.23696,4.299122 1.076771,2.542342 1.347129,3.284395 1.734557,4.760843 0.508892,1.939334 0.771953,2.272029 2.27604,2.878526 2.469433,0.995756 2.740369,1.455617 2.911974,4.942522 0.0698,1.418212 0.178809,2.410372 0.334407,3.04351 0.671687,2.73316 3.122876,7.785047 4.710292,9.707885 0.657627,0.796585 1.868725,1.685984 2.782203,2.043178 0.715638,0.279833 0.851837,0.270235 1.280218,-0.09022 z"
     id="path851"
     inkscape:connector-curvature="0" />
</svg>
